<mxfile host="app.diagrams.net" modified="2022-05-04T18:41:10.259Z" agent="5.0 (Windows NT 10.0; Win64; x64) AppleWebKit/537.36 (KHTML, like Gecko) Chrome/100.0.4896.127 Safari/537.36" etag="IzCXYWbLhnVlrwkulYLJ" version="17.5.0" type="github">
  <diagram id="C5RBs43oDa-KdzZeNtuy" name="Page-1">
    <mxGraphModel dx="1740" dy="932" grid="1" gridSize="10" guides="1" tooltips="1" connect="1" arrows="1" fold="1" page="1" pageScale="1" pageWidth="827" pageHeight="1169" math="0" shadow="0">
      <root>
        <mxCell id="WIyWlLk6GJQsqaUBKTNV-0" />
        <mxCell id="WIyWlLk6GJQsqaUBKTNV-1" parent="WIyWlLk6GJQsqaUBKTNV-0" />
        <mxCell id="ZU_Zi9bOW3KkTaGkbczZ-2" value="" style="edgeStyle=orthogonalEdgeStyle;rounded=0;orthogonalLoop=1;jettySize=auto;html=1;" edge="1" parent="WIyWlLk6GJQsqaUBKTNV-1" source="ZU_Zi9bOW3KkTaGkbczZ-0" target="ZU_Zi9bOW3KkTaGkbczZ-1">
          <mxGeometry relative="1" as="geometry" />
        </mxCell>
        <mxCell id="ZU_Zi9bOW3KkTaGkbczZ-0" value="" style="rounded=0;whiteSpace=wrap;html=1;" vertex="1" parent="WIyWlLk6GJQsqaUBKTNV-1">
          <mxGeometry x="30" y="120" width="120" height="60" as="geometry" />
        </mxCell>
        <mxCell id="ZU_Zi9bOW3KkTaGkbczZ-4" style="edgeStyle=orthogonalEdgeStyle;rounded=0;orthogonalLoop=1;jettySize=auto;html=1;" edge="1" parent="WIyWlLk6GJQsqaUBKTNV-1" source="ZU_Zi9bOW3KkTaGkbczZ-1" target="ZU_Zi9bOW3KkTaGkbczZ-3">
          <mxGeometry relative="1" as="geometry" />
        </mxCell>
        <mxCell id="ZU_Zi9bOW3KkTaGkbczZ-1" value="" style="whiteSpace=wrap;html=1;rounded=0;" vertex="1" parent="WIyWlLk6GJQsqaUBKTNV-1">
          <mxGeometry x="230" y="120" width="120" height="60" as="geometry" />
        </mxCell>
        <mxCell id="ZU_Zi9bOW3KkTaGkbczZ-3" value="" style="shape=cylinder3;whiteSpace=wrap;html=1;boundedLbl=1;backgroundOutline=1;size=15;" vertex="1" parent="WIyWlLk6GJQsqaUBKTNV-1">
          <mxGeometry x="510" y="110" width="60" height="80" as="geometry" />
        </mxCell>
      </root>
    </mxGraphModel>
  </diagram>
</mxfile>
